<?xml version="1.0" encoding="UTF-8" standalone="no"?>
<!-- Created with Inkscape (http://www.inkscape.org/) -->

<svg
   xmlns:dc="http://purl.org/dc/elements/1.1/"
   xmlns:cc="http://creativecommons.org/ns#"
   xmlns:rdf="http://www.w3.org/1999/02/22-rdf-syntax-ns#"
   xmlns:svg="http://www.w3.org/2000/svg"
   xmlns="http://www.w3.org/2000/svg"
   xmlns:sodipodi="http://sodipodi.sourceforge.net/DTD/sodipodi-0.dtd"
   xmlns:inkscape="http://www.inkscape.org/namespaces/inkscape"
   id="svg2"
   version="1.1"
   inkscape:version="0.48.5 r10040"
   width="215"
   height="435"
   xml:space="preserve"
   sodipodi:docname="propagation_text.pdf"><metadata
     id="metadata8"><rdf:RDF><cc:Work
         rdf:about=""><dc:format>image/svg+xml</dc:format><dc:type
           rdf:resource="http://purl.org/dc/dcmitype/StillImage" /><dc:title></dc:title></cc:Work></rdf:RDF></metadata><defs
     id="defs6"><clipPath
       clipPathUnits="userSpaceOnUse"
       id="clipPath18"><path
         d="M 0,0 172,0 172,348 0,348 0,0 z"
         id="path20" /></clipPath></defs><sodipodi:namedview
     pagecolor="#ffffff"
     bordercolor="#666666"
     borderopacity="1"
     objecttolerance="10"
     gridtolerance="10"
     guidetolerance="10"
     inkscape:pageopacity="0"
     inkscape:pageshadow="2"
     inkscape:window-width="1600"
     inkscape:window-height="839"
     id="namedview4"
     showgrid="false"
     inkscape:zoom="6.138012"
     inkscape:cx="-29.591903"
     inkscape:cy="68.232427"
     inkscape:window-x="0"
     inkscape:window-y="27"
     inkscape:window-maximized="1"
     inkscape:current-layer="g16" /><g
     id="g10"
     inkscape:groupmode="layer"
     inkscape:label="propagation_text"
     transform="matrix(1.25,0,0,-1.25,0,435)"><g
       id="g12" /><g
       id="g14"><g
         id="g16"
         clip-path="url(#clipPath18)"><path
           d="M 0,0 172,0 172,348 0,348 0,0 z"
           style="fill:#ffffff;fill-opacity:0;fill-rule:evenodd;stroke:none"
           id="path22" /><path
           d="m 1.243701,134.3239 169.034499,0 0,-132.990601 -169.034499,0 0,132.990601 z"
           style="fill:#ffffff;fill-opacity:1;fill-rule:evenodd;stroke:none"
           id="path24" /><g
           id="g26"
           transform="matrix(7.874016e-5,0,0,-7.874016e-5,1.243701,134.3239)"><path
             d="M 4.091263e-4,-0.05224609 2146738,-0.05224609 2146738,1688980 4.091263e-4,1688980 l 0,-1688980.05224609 z"
             style="fill:none;stroke:#fdd03c;stroke-opacity:1;stroke-width:25400;stroke-linecap:butt;stroke-linejoin:round;stroke-miterlimit:10;stroke-dasharray:none"
             id="path28" /></g><path
           d="m 1.330315,346.5087 168.947785,0 0,-168.9478 -168.947785,0 0,168.9478 z"
           style="fill:#ffffff;fill-opacity:1;fill-rule:evenodd;stroke:none"
           id="path30" /><g
           id="g32"
           transform="matrix(7.874016e-5,0,0,-7.874016e-5,1.330315,346.5087)"><path
             d="M 4.220009e-4,-0.07080078 2145637,-0.07080078 2145637,2145637 4.220009e-4,2145637 l 0,-2145637.07080078 z"
             style="fill:none;stroke:#4180ff;stroke-opacity:1;stroke-width:25400;stroke-linecap:butt;stroke-linejoin:round;stroke-miterlimit:10;stroke-dasharray:none"
             id="path34" /></g><g
           id="g36"
           transform="matrix(7.874016e-5,0,0,-7.874016e-5,15.105777,84.293992)"><path
             d="M -0.01194763,0.01452637 144000,0.01452637 144000,144000 l -144000.01194763,0 0,-143999.98547363 z"
             style="fill:none;stroke:#000000;stroke-width:38100;stroke-linecap:butt;stroke-linejoin:round;stroke-miterlimit:10;stroke-opacity:1;stroke-dasharray:none"
             id="path38"
             inkscape:connector-curvature="0" /></g><g
           id="g40"
           transform="matrix(7.874016e-5,0,0,-7.874016e-5,15.08205,84.31772)"><path
             d="M 0.00277329,-0.02502441 525011,-0.02502441 525011,525011 0.00277329,525011 l 0,-525011.02502441 z"
             style="fill:none;stroke:#000000;stroke-opacity:1;stroke-width:38100;stroke-linecap:butt;stroke-linejoin:round;stroke-miterlimit:10;stroke-dasharray:none"
             id="path42" /></g><g
           id="g44"
           transform="translate(8.688819,342.9087)"><text
             transform="matrix(1,0,0,-1,0,-18)"
             id="text46"><tspan
               style="fill:#228aff;fill-opacity:1;fill-rule:nonzero;stroke:none;font-family:ArialMT;font-variant:normal;font-weight:normal;font-size:18;writing-mode:lr;-inkscape-font-specification:ArialMT"
               x="0 10.9944 21.006 27 37.0116 47.0232 52.0236"
               y="0"
               sodipodi:role="line"
               id="tspan48">Target </tspan></text>
</g><g
           id="g50"
           transform="translate(8.530394,30.8689)"><text
             transform="matrix(1,0,0,-1,0,-18)"
             id="text52"><tspan
               style="fill:#fbc82f;fill-opacity:1;fill-rule:nonzero;stroke:none;font-family:ArialMT;font-variant:normal;font-weight:normal;font-size:18;writing-mode:lr;-inkscape-font-specification:ArialMT"
               x="0 12.006 21.006 31.0176 46.0116 56.0232 60.0228 70.0344 76.0284"
               y="0"
               sodipodi:role="line"
               id="tspan54">Exemplar </tspan></text>
</g><g
           id="g56"
           transform="matrix(-7.874016e-5,0,0,-7.874016e-5,56.4215,248.8272)"><path
             d="M -0.01628113,0.02105713 259362.8,2064262"
             style="fill:none;stroke:#000000;stroke-opacity:1;stroke-width:25400;stroke-linecap:butt;stroke-linejoin:round;stroke-miterlimit:10;stroke-dasharray:none"
             id="path58" /></g><path
           d="m 35.75181,84.31771 5.26232,6.8784 0,0 c 0.33558,0.43864 0.25204,1.06627 -0.1866,1.40185 l 0,0 C 40.38889,92.93354 39.76126,92.85 39.42568,92.41135 l -3.17904,-4.15533 -2.05227,4.81262 0,0 c -0.21664,0.50803 -0.80409,0.74424 -1.31211,0.5276 0,0 0,0 0,0 l 0,0 c -0.50803,-0.21664 -0.74424,-0.8041 -0.5276,-1.31211 l 3.39715,-7.96642 z"
           style="fill:#000000;fill-opacity:1;fill-rule:evenodd;stroke:none"
           id="path60" /><g
           id="g62"
           transform="matrix(7.874016e-5,0,0,-7.874016e-5,88.42984,237.3476)"><path
             d="M -0.03088379,-0.07165527 709388.6,1866358"
             style="fill:none;stroke:#919191;stroke-opacity:1;stroke-width:25400;stroke-linecap:butt;stroke-linejoin:round;stroke-miterlimit:10;stroke-dasharray:76200,25400;stroke-dashoffset:0"
             id="path64" /></g><path
           d="m 144.9923,88.53506 -6.7369,5.44227 0,0 c -0.4296,0.34705 -0.4965,0.97667 -0.1495,1.40628 l 0,0 c 0.3471,0.42962 0.9767,0.49656 1.4063,0.14949 l 4.0699,-3.28774 0.8586,5.16101 0,0 c 0.0906,0.5448 0.6057,0.91297 1.1505,0.82234 0,0 0,0 0,0 l 0,0 c 0.5448,-0.09063 0.913,-0.60575 0.8223,-1.15054 l -1.4212,-8.54311 z"
           style="fill:#919191;fill-opacity:1;fill-rule:evenodd;stroke:none"
           id="path66" /><g
           id="g68"
           transform="matrix(7.874016e-5,0,0,-7.874016e-5,67.76008,278.687)"><path
             d="m -0.00393677,-0.04882812 525011.00393677,0 0,525010.94882812 -525011.00393677,0 0,-525010.94882812 z"
             style="fill:none;stroke:#919191;stroke-opacity:1;stroke-width:38100;stroke-linecap:butt;stroke-linejoin:round;stroke-miterlimit:10;stroke-dasharray:114300,38100;stroke-dashoffset:0"
             id="path70" /></g><g
           id="g72"
           transform="matrix(7.874016e-5,0,0,-7.874016e-5,56.4215,290.1666)"><path
             d="m 0.01628113,-0.1499023 525011.08371887,0 0,525010.9499023 -525011.08371887,0 0,-525010.9499023 z"
             style="fill:none;stroke:#000000;stroke-opacity:1;stroke-width:38100;stroke-linecap:butt;stroke-linejoin:round;stroke-miterlimit:10;stroke-dasharray:none"
             id="path74" /></g><g
           id="g76"
           transform="matrix(7.874016e-5,0,0,-7.874016e-5,67.67149,278.7756)"><path
             d="m 0.03033447,-0.03637695 144000.06966553,0 0,144000.13637695 -144000.06966553,0 0,-144000.13637695 z"
             style="fill:none;stroke:#919191;stroke-opacity:1;stroke-width:38100;stroke-linecap:butt;stroke-linejoin:round;stroke-miterlimit:10;stroke-dasharray:114300,38100;stroke-dashoffset:0"
             id="path78" /></g><g
           id="g80"
           transform="matrix(7.874016e-5,0,0,-7.874016e-5,56.4215,290.0256)"><path
             d="m 0.01628113,-0.03637695 143999.98371887,0 0,144000.13637695 -143999.98371887,0 0,-144000.13637695 z"
             style="fill:none;stroke:#000000;stroke-opacity:1;stroke-width:38100;stroke-linecap:butt;stroke-linejoin:round;stroke-miterlimit:10;stroke-dasharray:none"
             id="path82" /></g><g
           id="g84"
           transform="matrix(0,7.874016e-5,-7.874016e-5,0,124.3121,46.88547)"><path
             d="M 1.220702e-4,-0.01776123 -669.7264,1.144958 l -669.7266,3.48816 -669.727,5.910492 -669.678,8.13904 -669.629,10.56137 -669.679,12.78992 -669.629,15.11535 -669.581,17.53769 -669.582,19.76624 -669.484,21.99478 -669.436,24.4171 -669.387,26.6457 -669.291,29.068 -669.242,31.1996 -669.192,33.5251 -669.15,35.8505 -669.04,37.9822 -668.96,40.4045 -668.8,42.6331 -668.76,44.8616 -668.66,47.0901 -668.56,49.4156 -668.47,51.6441 -668.28,53.7759 -668.22,56.1012 -668.03,58.3297 -667.94,60.5583 -667.78,62.7869 -667.7,65.0154 -667.49,67.2444 -667.31,69.375 -667.16,71.604 -667.06,73.833 -666.87,75.964 -666.62,78.29 -666.58,80.325 -666.34,82.553 -666.09,84.782 -665.95,86.913 -665.75,89.142 -665.51,91.176 -665.32,93.405 -665.12,95.537 -664.89,97.669 -664.68,99.897 -664.4,102.028 -664.21,104.161 -664.01,106.195 -663.67,108.423 -663.52,110.459 -663.19,112.59 -662.94,114.818 -662.66,116.757 -662.45,118.985 -662.12,121.019 -661.84,123.152 -661.53,125.186 -661.3,127.318 -661.01,129.352 -660.61,131.485 -660.38,133.519 -660.09,135.65 -659.74,137.686 -659.46,139.72 -659.11,141.658 -658.73,143.886 -658.44,145.825 -658.05,147.956 -657.76,149.991 -657.38,151.928 -657.03,153.964 -656.65,155.998 -656.35,158.033 -655.92,160.068 -655.48,162.005 -655.2,164.041 -654.75,166.075 -654.37,168.013 -653.98,170.048 -653.6,171.985 -653.15,174.021 -652.78,175.958 -652.38,177.896 -651.85,179.931 -651.51,181.869 -651.07,183.806 -650.64,185.842 -650.11,187.682 -649.77,189.62 -649.23,191.558 -648.8,193.593 -648.31,195.434 -647.87,197.372 -647.4,199.309 -646.96,201.248 -646.37,203.092 -645.94,205.02 -645.4,206.97 -644.93,208.8 -644.43,210.74 -643.96,212.68 -643.37,214.43 -642.93,216.36 -642.31,218.21 -641.82,220.14 -641.34,221.98 -640.76,223.82 -640.17,225.77 -639.69,227.5 -639.06,229.44 -638.57,231.19 -637.9,233.03 -637.41,234.97 -636.78,236.8 -636.25,238.56 -635.63,240.39 -635.09,242.13 -634.4,243.98 -633.88,245.82 -633.2,247.56 -632.61,249.5 -632.08,251.15 -631.36,252.89 -630.78,254.83 -630.1,256.57 -629.52,258.22 -628.83,260.07 -628.16,261.9 -627.58,263.65 -626.85,265.29 -626.22,267.13 -625.54,268.88 -624.87,270.53 -624.19,272.37 -623.5,274.11 -622.83,275.76 -622.1,277.6 -621.43,279.14 -620.7,281 -620.02,282.63 -619.29,284.39 -618.57,286.02 -617.89,287.78 -617.11,289.42 -616.39,291.16 -615.61,292.81 -614.89,294.46 -614.15,296.11 -613.38,297.95 -612.66,299.49 -611.79,301.05 -611.16,302.89 -610.28,304.44 -609.53,306.08 -608.7,307.74 -608,309.38 -607.1,311.03 -606.4,312.57 -605.5,314.32 -604.7,315.88 -603.9,317.42 -603.2,319.07 -602.2,320.72 -601.5,322.26 -600.5,323.92 -599.8,325.46 -598.9,327.11 -598,328.67 -597.2,330.21 -596.3,331.76 -595.5,333.31 -594.6,334.96 -593.7,336.42 -592.8,338.06 -591.9,339.61 -591.1,341.16 -590.1,342.61 -589.2,344.27 -588.4,345.71 -587.3,347.27 -586.5,348.72 -585.6,350.36 -584.6,351.73 -583.7,353.36 -582.8,354.83 -581.8,356.28 -580.8,357.82 -580,359.28 -578.9,360.74 -577.9,362.28 -577,363.74 -576.1,365.19 -575.1,366.74 -574,368.1 -573.1,369.55 -572.1,371.1 -571.1,372.46 -570.1,373.91 -569,375.36 -568,376.82 -567.1,378.27 -565.9,379.63 -565,381.08 -564,382.54 -562.8,383.89 -561.8,385.34 -560.8,386.71 -559.7,388.05 -558.7,389.51 -557.6,390.87 -556.5,392.32 -555.5,393.68 -554.3,395.04 -553.3,396.39 -552.1,397.74 -551.2,399.11 -549.9,400.45 -548.9,401.82 -547.7,403.27 -546.6,404.53 -545.6,405.89 -544.4,407.14 -543.2,408.51 -542.1,409.86 -541,411.11 -539.7,412.57 -538.7,413.84 -537.6,414.99 -536.2,416.45 -535.2,417.7 -534.1,418.97 -532.8,420.23 -531.5,421.58 -530.5,422.84 -529.2,424.1 -528.1,425.37 -526.8,426.72 -525.6,427.87 -524.4,429.14 -523.2,430.41 -521.9,431.66 -520.8,432.92 -519.5,434.08 -518.2,435.43 -517,436.61 -515.7,437.86 -514.5,438.93 -513.2,440.28 -512,441.54 -510.7,442.61 -509.4,443.87 -508.1,445.03 -506.9,446.29 -505.5,447.45 -504.2,448.62 -503,449.78 -501.6,451.04 -500.3,452.1 -499,453.27 -497.7,454.43 -496.4,455.69 -495,456.75 -493.7,457.92 -492.4,459.08 -490.9,460.14 -489.7,461.32 -488.2,462.47 -487,463.53 -485.5,464.71 -484.2,465.76 -482.8,466.92 -481.4,468 -480,469.16 -478.6,470.23 -477.2,471.29 -475.8,472.35 -474.4,473.51 -473,474.49 -471.6,475.65 -470.1,476.72 -468.7,477.68 -467.3,478.85 -465.8,479.91 -464.4,480.88 -462.9,481.95 -461.5,482.91 -460,484.08 -458.6,485.05 -457.1,486.12 -455.6,487.08 -454.1,488.15 -452.6,489.12 -451.2,490.08 -449.7,491.25 -448.1,492.12 -446.7,493.09 -445.1,494.16 -443.5,495.12 -442.1,496.1 -440.6,497.06 -439,498.13 -437.5,498.9 -436,499.97 -434.4,500.94 -432.8,501.9 -431.3,502.88 -429.7,503.75 -428.2,504.72 -426.5,505.69 -425,506.55 -423.4,507.43 -421.9,508.5 -420.2,509.27 -418.6,510.34 -417.1,511.11 -415.4,512.08 -413.8,512.95 -412.2,513.83 -410.5,514.8 -408.9,515.56 -407.4,516.54 -405.6,517.41 -404,518.19 -402.4,519.15 -400.7,520.03 -399,520.8 -397.4,521.68 -395.7,522.53 -394.1,523.43 -392.3,524.16 -390.7,525.1 -388.9,525.9 -387.3,526.6 -385.6,527.5 -383.8,528.5 -382.2,529 -380.4,530 -378.8,530.8 -376.9,531.6 -375.3,532.3 -373.5,533.2 -371.7,533.9 -370.1,534.7 -368.3,535.5 -366.5,536.2 -364.7,537 -363,537.8 -361.3,538.6 -359.4,539.2 -357.6,540 -355.9,540.8 -354.1,541.4 -352.2,542.4 -350.5,542.9 -348.7,543.6 -346.8,544.5 -345.1,545.1 -343.2,545.8 -341.3,546.6 -339.6,547.2 -337.7,547.9 -335.8,548.7 -334,549.3 -332.2,550 -330.2,550.7 -328.5,551.3 -326.5,552 -324.7,552.7 -322.8,553.4 -321,553.9 -319,554.7 -317.1,555.3 -315.2,555.9 -313.3,556.6 -311.4,557.2 -309.6,557.8 -307.5,558.5 -305.7,559.1 -303.7,559.7 -301.8,560.3 -299.8,560.8 -297.9,561.5 -295.9,562.2 -294,562.7 -292,563.2 -290.1,563.9 -288.1,564.4 -286.1,565 -284.1,565.6 -282.1,566.2 -280.2,566.6 -278.1,567.4 -276.2,567.7 -274.1,568.3 -272.1,569 -270.1,569.3 -268.1,570 -266,570.5 -264,571 -262,571.5 -260,572.1 -257.9,572.5 -255.8,573.1 -253.8,573.6 -251.7,574 -249.6,574.5 -247.6,575 -245.5,575.4 -243.3,576.1 -241.4,576.4 -239.2,577 -237.1,577.4 -235,577.8 -232.9,578.3 -230.8,578.8 -228.6,579.1 -226.6,579.6 -224.4,580 -222.3,580.5 -220.1,581 -218,581.3 -215.8,581.8 -213.7,582.1 -211.5,582.6 -209.4,582.9 -207.1,583.4 -205,583.8 -202.9,584.2 -200.6,584.5 -198.4,584.9 -196.3,585.3 -194,585.8 -191.9,586 -189.6,586.4 -187.4,586.7 -185.2,587.1 -182.9,587.5 -180.7,587.8 -178.5,588.1 -176.2,588.4 -174.1,588.8 -171.7,589.2 -169.5,589.5 -167.2,589.7 -164.9,590.1 -162.7,590.4 -160.4,590.6 -158.1,591.1 -155.8,591.2 -153.5,591.7 -151.3,591.8 -148.9,592.1 -146.6,592.4 -144.3,592.6 -142,593 -139.6,593.3 -137.4,593.4 -134.9,593.6 -132.7,594.1 -130.3,594.1 -128,594.5 -125.5,594.7 -123.3,594.8 -120.8,595.1 -118.5,595.4 -116.2,595.7 -113.7,595.7 -111.4,595.9 -108.9,596.2 -106.6,596.4 -104.2,596.6 -101.7,596.7 -99.4,597 -96.9,597.1 -94.5,597.3 -92.1,597.4 -89.6,597.7 -87.3,597.8 -84.7,598 -82.3,598 -79.9,598.2 -77.5,598.4 -74.9,598.6 -72.5,598.6 -70,598.8 -67.6,598.9 -65,599 -62.5,599.2 -60.1,599.2 -57.6,599.4 -55.1,599.4 -52.5,599.6 -50,599.6 -47.6,599.8 -44.9,599.7 -42.5,600 -40,599.9 -37.4,600 -34.8,600.2 -32.3,600.1 -29.8,600.3 -27.2,600.3 -24.6,600.2 -22.1,600.4 -19.4,600.3 -16.9,600.5 -14.3,600.4 -11.7,600.5 -9.2,600.5 -6.5,600.5 -3.9,600.5 -1.3,600.4 1.1,600.6 3.2,600.5 5.3,600.5 7.5,600.5 9.6,600.5 11.8,600.4 13.9,600.5 16,600.3 18.1,600.4 20.2,600.2 22.3,600.3 24.4,600.2 26.5,600.2 28.6,600.1 30.7,600.1 32.8,599.9 34.8,599.8 37,599.9 39,599.8 41.1,599.6 43.1,599.5 45.2,599.5 47.2,599.4 49.4,599.2 51.3,599.2 53.3,599 55.5,598.9 57.5,598.8 59.4,598.6 61.6,598.6 63.5,598.4 65.5,598.2 67.6,598 69.6,598 71.6,597.8 73.6,597.6 75.5,597.5 77.6,597.3 79.5,597.1 81.6,596.9 83.5,596.8 85.5,596.6 87.5,596.4 89.4,596.1 91.4,596 93.4,595.7 95.3,595.6 97.2,595.4 99.2,595.2 101.2,594.8 103.1,594.7 105,594.5 106.9,594.1 108.9,594.1 110.8,593.6 112.7,593.4 114.6,593.2 116.6,593.1 118.4,592.6 120.3,592.4 122.3,592.1 124.1,591.8 126,591.6 127.9,591.3 129.7,591 131.7,590.7 133.5,590.4 135.4,590 137.3,589.8 139.1,589.4 140.9,589.2 142.8,588.8 144.6,588.5 146.6,588.1 148.3,587.9 150.1,587.4 152,587.1 153.8,586.7 155.7,586.4 157.4,586.1 159.3,585.7 161,585.3 162.9,584.8 164.7,584.7 166.5,584.1 168.3,583.7 170,583.4 171.8,582.9 173.6,582.7 175.4,582.1 177.2,581.8 178.8,581.4 180.7,580.9 182.5,580.5 184.1,580 186,579.6 187.7,579.2 189.3,578.7 191.2,578.3 192.9,577.9 194.6,577.4 196.3,576.9 198.1,576.4 199.7,575.9 201.5,575.6 203.2,575 204.9,574.5 206.6,574.1 208.3,573.5 210,573 211.7,572.6 213.3,572 215,571.6 216.7,571 218.3,570.4 220.1,570 221.7,569.5 223.3,568.8 225,568.3 226.6,567.8 228.3,567.3 230,566.7 231.5,566.2 233.2,565.6 234.8,565 236.5,564.4 238,563.9 239.7,563.2 241.3,562.7 242.9,562.2 244.5,561.5 246.2,560.8 247.6,560.3 249.3,559.7 250.8,559 252.5,558.5 254,557.9 255.6,557.2 257.2,556.5 258.7,555.9 260.3,555.4 261.8,554.6 263.5,554 264.9,553.4 266.4,552.7 268.1,552 269.6,551.3 271,550.7 272.7,549.9 274.1,549.4 275.7,548.6 277.2,548 278.6,547.2 280.1,546.6 281.7,545.8 283.2,545.1 284.7,544.5 286.2,543.6 287.6,542.9 289.2,542.3 290.6,541.5 292,540.8 293.6,540 295,539.2 296.5,538.7 298,537.7 299.3,537 300.8,536.2 302.3,535.5 303.7,534.7 305.1,534 306.6,533.1 308,532.3 309.4,531.7 310.8,530.6 312.3,530 313.6,529.2 315.1,528.3 316.4,527.5 317.9,526.7 319.3,525.9 320.6,525 322.1,524.3 323.3,523.4 324.8,522.5 326.2,521.7 327.5,520.8 328.9,520 330.2,519.1 331.5,518.2 333,517.4 334.3,516.6 335.7,515.6 336.9,514.8 338.4,513.8 339.6,512.9 340.9,512.1 342.2,511.1 343.7,510.4 344.9,509.2 346.2,508.5 347.5,507.4 348.9,506.6 350.1,505.7 351.4,504.7 352.7,503.8 354,502.8 355.2,502 356.5,500.9 357.8,499.9 359.1,499 360.4,498.1 361.5,497.1 362.9,496 364.1,495.2 365.4,494.1 366.5,493.1 367.8,492.1 369.1,491.3 370.2,490.1 371.5,489.1 372.8,488.1 373.9,487.1 375.2,486.2 376.3,485 377.6,484.1 378.8,482.9 379.9,481.9 381.1,480.9 382.4,479.9 383.5,478.9 384.7,477.7 385.9,476.7 387.1,475.6 388.2,474.5 389.3,473.5 390.5,472.4 391.7,471.3 392.9,470.2 393.9,469.1 395.2,468 396.2,467 397.4,465.7 398.5,464.7 399.6,463.6 400.8,462.4 401.8,461.4 403,460.1 404.2,459.1 405.1,457.9 406.3,456.8 407.4,455.7 408.5,454.4 409.5,453.2 410.6,452.1 411.8,451.1 412.8,449.8 413.9,448.6 414.9,447.4 415.9,446.3 417.1,445.1 418.2,443.8 419.1,442.6 420.1,441.6 421.3,440.3 422.2,438.9 423.4,437.8 424.3,436.6 425.3,435.4 426.4,434.2 427.4,432.8 428.4,431.7 429.4,430.3 430.4,429.3 431.4,427.9 432.4,426.7 433.4,425.3 434.3,424.2 435.4,422.8 436.3,421.5 437.4,420.3 438.3,419 439.1,417.7 440.3,416.4 441.1,415 442.1,413.9 443.1,412.5 444,411.1 444.9,409.9 446,408.5 446.7,407.1 447.7,405.9 448.7,404.6 449.6,403.2 450.4,401.8 451.4,400.5 452.4,399.1 453.2,397.8 454,396.4 455,395 455.9,393.6 456.8,392.4 457.6,390.8 458.5,389.6 459.4,388 460.3,386.7 461.2,385.4 461.9,383.9 462.9,382.5 463.6,381.1 464.6,379.6 465.4,378.3 466.2,376.7 467.1,375.5 467.9,373.9 468.7,372.4 469.5,371.1 470.4,369.6 471.1,368.1 472,366.7 472.8,365.2 473.6,363.7 474.4,362.2 475.1,360.9 476,359.3 476.7,357.8 477.6,356.2 478.3,355 479,353.2 479.9,351.8 480.6,350.3 481.3,348.8 482.2,347.3 482.8,345.6 483.7,344.3 484.3,342.6 485.1,341.2 485.8,339.5 486.6,338 487.3,336.5 488,334.9 488.7,333.4 489.5,331.9 490.1,330.1 490.9,328.8 491.5,327 492.2,325.4 493,323.9 493.6,322.3 494.3,320.7 495,319.1 495.7,317.5 496.3,315.9 497,314.2 497.7,312.7 498.3,310.9 499,309.4 499.6,307.8 500.3,306 500.9,304.5 501.5,302.9 502.2,301.1 502.8,299.5 503.4,297.9 504.1,296.1 504.7,294.4 505.3,292.8 505.9,291.2 506.5,289.4 507.1,287.8 507.7,286 508.3,284.4 508.9,282.7 509.4,280.9 510,279.2 510.6,277.6 511.2,275.7 511.8,274 512.3,272.5 512.9,270.5 513.3,268.9 514.1,267.1 514.5,265.3 515,263.7 515.6,261.8 516.2,260.1 516.6,258.3 517.2,256.6 517.7,254.7 518.2,253 518.7,251.1 519.2,249.5 519.8,247.6 520.2,245.8 520.7,244 521.3,242.2 521.7,240.4 522.2,238.4 522.7,236.8 523.1,234.9 523.6,233.1 524.1,231.2 524.46,229.5 525.03,227.5 525.5,225.8 525.83,223.7 526.33,222.1 526.8,220 527.2,218.3 527.69,216.4 528.06,214.5 528.51,212.6 528.94,210.7 529.28,208.8 529.76,207 530.15,205 530.54,203.1 531.02,201.3 531.32,199.3 531.75,197.3 532.09,195.5 532.53,193.4 532.86,191.7 533.26,189.6 533.63,187.8 533.98,185.8 534.37,183.8 534.71,181.8 535.04,179.9 535.38,178 535.78,175.9 536.11,174 536.44,172 536.75,170.1 537.03,168 537.47,166.1 537.66,164 538.09,162 538.34,160.1 538.63,158 539.02,156 539.26,154 539.55,151.9 539.79,150 540.13,148 540.48,145.8 540.66,143.7 540.96,141.8 541.24,139.7 541.44,137.7 541.73,135.7 542.02,133.5 542.21,131.5 542.61,129.3 542.65,127.4 543.04,125.1 543.24,123.2 543.42,121 543.72,119 543.86,116.7 544.1,114.9 544.35,112.5 544.54,110.5 544.73,108.4 544.93,106.2 545.17,104.2 545.36,102 545.51,99.9 545.75,97.7 545.86,95.5 546.09,93.4 546.23,91.2 546.38,89.1 546.53,86.9 546.77,84.8 546.86,82.6 547.06,80.3 547.21,78.3 547.3,76 547.5,73.8 547.59,71.6 547.74,69.4 547.78,67.2 548.03,65 548.13,62.8 548.17,60.6 548.32,58.2 548.42,56.2 548.51,53.8 548.61,51.6 548.71,49.4 548.8,47.1 548.9,44.9 548.9,42.6 549.1,40.4 549.09,38 549.19,35.9 549.19,33.5 549.34,31.2 549.38,29.1 549.34,26.6 549.44,24.4 549.52,22 549.53,19.8 549.58,17.5 549.58,15.1 549.63,12.8 549.63,10.6 549.67,8.1 549.63,5.9 549.67,3.5 549.68,1.2 4397.16,-1.8 2197.84,-2.3 2197.15,-3.1 2195.99,-4 2194.68,-4.9 2193.04,-5.7 2191.14,-6.7 2189.06,-7.3 2186.64,-8.4 2183.93,-9.1 2180.97,-10 2177.73,-10.7 2174.33,-11.7 1085.739,-6.1 1084.769,-6.2 1083.704,-6.6 1082.782,-6.6 1081.62,-6.9 1080.555,-7.2 1079.391,-7.3 1078.229,-7.4 1077.0175,-7.7 1075.7579,-7.9 1074.4986,-8.1 1073.19,-8.2 1071.834,-8.5 1070.525,-8.6 1069.073,-8.9 1067.619,-9 1066.117,-9.2 1064.616,-9.4 1063.113,-9.6 1061.51,-9.7 1059.97,-10 1058.22,-10.1 1056.57,-10.4 1054.88,-10.5 1053.13,-10.6 1051.34,-10.8 1049.5,-11.1 1047.76,-11.2 1045.82,-11.5 1043.88,-11.5 1041.94,-11.7 1040,-12 1037.92,-12 1035.94,-12.3 1033.85,-12.5 1031.72,-12.6 1029.59,-12.7 1027.41,-13 1025.18,-13.1 1022.95,-13.3 1020.63,-13.5 1018.3,-13.5 1016.02,-13.9 1013.6,-13.9 1011.22,-14.2 1008.72,-14.2 1006.28,-14.4 1003.72,-14.7 1001.19,-14.7 998.64,-14.8 996.01,-15.2 993.3,-15.2 990.69,-15.4 987.92,-15.5 985.21,-15.7 982.36,-15.9 979.64,-15.9 976.68,-16.1 973.88,-16.3 970.92,-16.5 967.96,-16.6 965.01,-16.8 962,-16.9 958.86,-17 955.85,-17.2 952.71,-17.3 949.55,-17.5 946.4,-17.6 943.12,-17.7 939.91,-17.9 936.57,-18.1 933.33,-18.2 929.93,-18.3 926.54,-18.4 923.16,-18.5 919.6,-18.8 916.18,-18.8 912.69,-19 909.1,-19.2 905.46,-19.2 901.89,-19.4 898.25,-19.4 894.57,-19.8 890.83,-19.7 887.07,-19.9 883.22,-20.1 879.46,-20 875.53,-20.4 871.69,-20.3 867.78,-20.6 863.81,-20.6 430.44,-10.4 429.34,-10.4 428.46,-10.4 427.35,-10.5 426.38,-10.4 425.41,-10.6 424.29,-10.6 423.33,-10.5 422.21,-10.6 421.3,-10.7 420.18,-10.6 419.1,-10.8 418.15,-10.7 417.03,-10.8 416,-10.7 414.9,-10.9 413.89,-10.7 412.81,-11 411.75,-10.8 410.58,-11 409.57,-10.9 408.5,-11 407.39,-11 406.33,-11.1 405.15,-11 404.1,-11.1 402.97,-11.1 401.87,-11.1 400.75,-11.2 399.64,-11.2 398.52,-11.3 397.41,-11.2 396.24,-11.4 395.09,-11.2 394.01,-11.3 392.81,-11.5 391.69,-11.3 390.53,-11.4 389.41,-11.4 388.16,-11.5 387.08,-11.5 385.88,-11.5 384.67,-11.6 383.5,-11.5 382.39,-11.6 381.13,-11.7 379.92,-11.6 378.8,-11.7 377.56,-11.7 376.3,-11.7 375.2,-11.7 373.9,-11.8 372.8,-11.7 371.5,-11.9 370.3,-11.9 369,-11.8 367.8,-11.9 366.6,-11.9 365.4,-11.9 364,-12.1 362.9,-11.9 361.6,-12 360.3,-12.1 359.1,-12 357.8,-12.1 356.5,-12.2 355.3,-12.1 354,-12.1 352.7,-12.2 351.4,-12.2 350.1,-12.1 348.8,-12.3 347.5,-12.2 346.2,-12.3 345,-12.3 343.6,-12.4 342.2,-12.3 341,-12.4 339.6,-12.4 338.3,-12.4 337,-12.4 335.6,-12.5 334.3,-12.5 333,-12.5 331.5,-12.5 330.3,-12.5 328.8,-12.6 327.6,-12.6 326.1,-12.6 324.8,-12.6 323.4,-12.7 322,-12.7 320.6,-12.7 319.3,-12.6 317.9,-12.8 316.5,-12.8 315.1,-12.7 313.6,-12.8 312.2,-12.7 310.8,-13 309.5,-12.7 308,-12.9 306.6,-12.9 305.1,-12.9 303.7,-12.9 302.2,-13 300.9,-12.9 299.3,-13 298,-13 296.5,-13 295,-13.1 293.5,-13.1 100.8,-9"
             style="fill:none;stroke:#000000;stroke-opacity:1;stroke-width:25400;stroke-linecap:butt;stroke-linejoin:round;stroke-miterlimit:10;stroke-dasharray:76200,25400;stroke-dashoffset:0"
             id="path86" /></g><path
           d="m 92.42253,58.4327 -5.01839,-7.05833 0,0 c -0.32003,-0.45011 -0.21457,-1.07444 0.23554,-1.39446 l 0,0 c 0.45011,-0.32003 1.07443,-0.21457 1.39446,0.23554 l 3.03169,4.26404 2.21942,-4.73786 0,0 c 0.23428,-0.50013 0.82964,-0.71564 1.32977,-0.48136 0,0 0,0 0,0 l 0,0 c 0.50013,0.23429 0.71564,0.82965 0.48136,1.32978 l -3.67385,7.84265 z"
           style="fill:#000000;fill-opacity:1;fill-rule:evenodd;stroke:none"
           id="path88" /><g
           id="g90"
           transform="translate(23.29047,286.4256)"><text
             transform="matrix(1,0,0,-1,9.357407,-18)"
             id="text92"><tspan
               style="fill:#000000;fill-opacity:1;fill-rule:nonzero;stroke:none;font-family:Arial;font-variant:normal;font-weight:bold;font-size:18;writing-mode:lr;-inkscape-font-specification:Arial-BoldMT"
               x="0"
               y="0"
               id="tspan94">t</tspan></text>
</g><g
           id="g96"
           transform="translate(23.29047,286.4256)"><text
             transform="matrix(1,0,0,-1,15.35155,-22.5)"
             id="text98"><tspan
               style="fill:#000000;fill-opacity:1;fill-rule:nonzero;stroke:none;font-family:ArialMT;font-variant:normal;font-weight:normal;font-size:12;writing-mode:lr;-inkscape-font-specification:ArialMT"
               x="0"
               y="0"
               id="tspan100">i</tspan></text>
</g><g
           id="g102"
           transform="translate(23.29047,286.4256)" /><g
           id="g104"
           transform="translate(23.29047,265.4256)" /><g
           id="g106"
           transform="translate(8.443701,112.6555)"><text
             transform="matrix(1,0,0,-1,7.349106,-18)"
             id="text108"><tspan
               style="fill:#000000;fill-opacity:1;fill-rule:nonzero;stroke:none;font-family:Arial;font-variant:normal;font-weight:bold;font-size:18;writing-mode:lr;-inkscape-font-specification:Arial-BoldMT"
               x="0"
               y="0"
               id="tspan110">s</tspan></text>
</g><g
           id="g112"
           transform="translate(8.443701,112.6555)"><text
             transform="matrix(1,0,0,-1,17.35985,-22.5)"
             id="text114"><tspan
               style="fill:#000000;fill-opacity:1;fill-rule:nonzero;stroke:none;font-family:ArialMT;font-variant:normal;font-weight:normal;font-size:12;writing-mode:lr;-inkscape-font-specification:ArialMT"
               x="0"
               y="0"
               id="tspan116">i</tspan></text>
</g><g
           id="g118"
           transform="translate(8.443701,112.6555)" /><g
           id="g120"
           transform="translate(8.443701,91.65552)" /><g
           id="g122"
           transform="translate(115.0635,270.9711)"><text
             transform="matrix(1,0,0,-1,1.845688,-18)"
             id="text124"><tspan
               style="fill:#7f7f7f;fill-opacity:1;fill-rule:nonzero;stroke:none;font-family:Arial;font-variant:normal;font-weight:bold;font-size:18;writing-mode:lr;-inkscape-font-specification:Arial-BoldMT"
               x="0"
               y="0"
               id="tspan126">t</tspan></text>
</g><g
           id="g128"
           transform="translate(115.0635,270.9711)"><text
             transform="matrix(1,0,0,-1,7.839828,-22.5)"
             id="text130"><tspan
               style="fill:#919191;fill-opacity:1;fill-rule:nonzero;stroke:none;font-family:ArialMT;font-variant:normal;font-weight:normal;font-size:12;writing-mode:lr;-inkscape-font-specification:ArialMT"
               x="0 2.6664"
               y="0"
               sodipodi:role="line"
               id="tspan132">i+</tspan></text>
<text
             transform="matrix(1,0,0,-1,17.514228,-22.5)"
             id="text134"><tspan
               style="fill:#919191;fill-opacity:1;fill-rule:nonzero;stroke:none;font-family:ArialMT;font-variant:normal;font-weight:normal;font-size:12;writing-mode:lr;-inkscape-font-specification:ArialMT"
               x="0"
               y="0"
               id="tspan136">Δ</tspan></text>
</g><g
           id="g138"
           transform="translate(115.0635,270.9711)" /><g
           id="g140"
           transform="translate(115.0635,249.9711)" /><g
           id="g142"
           transform="translate(125.9688,46.39954)"><text
             transform="matrix(1,0,0,-1,3.087387,-18)"
             id="text144"><tspan
               style="fill:#7f7f7f;fill-opacity:1;fill-rule:nonzero;stroke:none;font-family:Arial;font-variant:normal;font-weight:bold;font-size:18;writing-mode:lr;-inkscape-font-specification:Arial-BoldMT"
               x="0"
               y="0"
               id="tspan146">s</tspan></text>
</g><g
           id="g148"
           transform="translate(125.9688,46.39954)"><text
             transform="matrix(1,0,0,-1,13.09813,-22.5)"
             id="text150"><tspan
               style="fill:#7f7f7f;fill-opacity:1;fill-rule:nonzero;stroke:none;font-family:ArialMT;font-variant:normal;font-weight:normal;font-size:12;writing-mode:lr;-inkscape-font-specification:ArialMT"
               x="0 2.6664"
               y="0"
               sodipodi:role="line"
               id="tspan152">i+</tspan></text>
<text
             transform="matrix(1,0,0,-1,22.77253,-22.5)"
             id="text154"><tspan
               style="fill:#7f7f7f;fill-opacity:1;fill-rule:nonzero;stroke:none;font-family:ArialMT;font-variant:normal;font-weight:normal;font-size:12;writing-mode:lr;-inkscape-font-specification:ArialMT"
               x="0"
               y="0"
               id="tspan156">Δ</tspan></text>
</g><g
           id="g158"
           transform="translate(125.9688,46.39954)" /><g
           id="g160"
           transform="translate(125.9688,25.39954)" /><g
           id="g162"
           transform="translate(73.4526,126.7728)"><text
             transform="matrix(1,0,0,-1,1.328598,-18)"
             id="text164"><tspan
               style="fill:#000000;fill-opacity:1;fill-rule:nonzero;stroke:none;font-family:Arial;font-variant:normal;font-weight:bold;font-size:18;writing-mode:lr;-inkscape-font-specification:Arial-BoldMT"
               x="0"
               y="0"
               id="tspan166">s</tspan></text>
</g><g
           id="g168"
           transform="translate(73.4526,126.7728)"><text
             transform="matrix(1,0,0,-1,11.33934,-22.5)"
             id="text170"><tspan
               style="fill:#000000;fill-opacity:1;fill-rule:nonzero;stroke:none;font-family:ArialMT;font-variant:normal;font-weight:normal;font-size:12;writing-mode:lr;-inkscape-font-specification:ArialMT"
               x="0 2.6664"
               y="0"
               sodipodi:role="line"
               id="tspan172">i+</tspan></text>
<text
             transform="matrix(1,0,0,-1,21.01374,-22.5)"
             id="text174"><tspan
               style="fill:#000000;fill-opacity:1;fill-rule:nonzero;stroke:none;font-family:ArialMT;font-variant:normal;font-weight:normal;font-size:12;writing-mode:lr;-inkscape-font-specification:ArialMT"
               x="0"
               y="0"
               id="tspan176">Δ</tspan></text>
</g><g
           id="g178"
           transform="translate(73.4526,126.7728)"><text
             transform="matrix(1,0,0,-1,29.02879,-18)"
             id="text180"><tspan
               style="fill:#000000;fill-opacity:1;fill-rule:nonzero;stroke:none;font-family:ArialMT;font-variant:normal;font-weight:normal;font-size:18;writing-mode:lr;-inkscape-font-specification:ArialMT"
               x="0"
               y="0"
               id="tspan182">-</tspan></text>
<text
             transform="matrix(1,0,0,-1,35.02279,-18)"
             id="text184"><tspan
               style="fill:#000000;fill-opacity:1;fill-rule:nonzero;stroke:none;font-family:ArialMT;font-variant:normal;font-weight:normal;font-size:18;writing-mode:lr;-inkscape-font-specification:ArialMT"
               x="0"
               y="0"
               id="tspan186">Δ</tspan></text>
</g><g
           id="g188"
           transform="translate(73.4526,126.7728)" /><g
           id="g190"
           transform="matrix(7.874016e-5,0,0,-7.874016e-5,103.6423,88.22498)"><path
             d="m -0.03665161,-0.06494141 525011.13665161,0 0,525010.96494141 -525011.13665161,0 0,-525010.96494141 z"
             style="fill:none;stroke:#919191;stroke-opacity:1;stroke-width:38100;stroke-linecap:butt;stroke-linejoin:round;stroke-miterlimit:10;stroke-dasharray:114300,38100;stroke-dashoffset:0"
             id="path192" /></g><g
           id="g194"
           transform="matrix(7.874016e-5,0,0,-7.874016e-5,92.42236,99.7722)"><path
             d="m 0.01367188,0.04046631 525010.98632812,0 0,525011.05953369 -525010.98632812,0 0,-525011.05953369 z"
             style="fill:none;stroke:#000000;stroke-opacity:1;stroke-width:38100;stroke-linecap:butt;stroke-linejoin:round;stroke-miterlimit:10;stroke-dasharray:none"
             id="path196" /></g><g
           id="g198"
           transform="matrix(7.874016e-5,0,0,-7.874016e-5,103.4302,88.56378)"><path
             d="M 0.00756836,-0.02807617 144000,-0.02807617 144000,144000 0.00756836,144000 l 0,-144000.02807617 z"
             style="fill:none;stroke:#919191;stroke-opacity:1;stroke-width:38100;stroke-linecap:butt;stroke-linejoin:round;stroke-miterlimit:10;stroke-dasharray:114300,38100;stroke-dashoffset:0"
             id="path200" /></g><g
           id="g202"
           transform="matrix(7.874016e-5,0,0,-7.874016e-5,92.42236,99.56354)"><path
             d="M 0.01367188,-0.05249023 144000,-0.05249023 144000,144000 0.01367188,144000 l 0,-144000.05249023 z"
             style="fill:none;stroke:#000000;stroke-opacity:1;stroke-width:38100;stroke-linecap:butt;stroke-linejoin:round;stroke-miterlimit:10;stroke-dasharray:none"
             id="path204" /></g></g></g></g></svg>